{"title":"Lord.of.the.Rings.-.The.Return.of.the.King.[2003].DvdRip.XviD-Kn","uid":6429113,"size":2143264768,"categoryP":"video","categoryS":"movies","magnet":"?xt=urn:btih:e25279914107301b20fe6cf028db7fbf32adc84f&amp;dn=Lord.of.the.Rings.-.The.Return.of.the.King.%5B2003%5D.DvdRip.XviD-Kn&amp;tr=udp%3A%2F%2Ftracker.openbittorrent.com%3A80&amp;tr=udp%3A%2F%2Fopen.demonii.com%3A1337&amp;tr=udp%3A%2F%2Ftracker.coppersurfer.tk%3A6969&amp;tr=udp%3A%2F%2Fexodus.desync.com%3A6969","seeders":1,"leechers":0,"uploader":"Jon.Pson","files":1,"time":1306581582,"description":"The former Fellowship of the Ring prepare for the final battle for Middle Earth, while Frodo &amp; Sam approach Mount Doom to destroy the One Ring. \n\nGeneral\nComplete name                    : H:\\Movies\\Lord.of.the.Rings.-.The.Return.of.the.King.[2003].DvdRip.XviD-KnÃƒÂ£\\Lord.of.the.Rings.-.The.Return.of.the.King.[2003].DvdRip.XviD-KnÃƒÂ£.avi\nFormat                           : AVI\nFormat/Info                      : Audio Video Interleave\nFormat profile                   : OpenDML\nFile size                        : 2.00 GiB\nDuration                         : 3h 12mn\nOverall bit rate                 : 1 482 Kbps\nWriting application              : VirtualDubMod 1.5.4.1 (build 2178/release)\nWriting library                  : VirtualDubMod build 2178/release\n\nVideo\nID                               : 0\nFormat                           : MPEG-4 Visual\nFormat profile                   : Advanced Simple@L5\nFormat settings, BVOP            : Yes\nFormat settings, QPel            : No\nFormat settings, GMC             : No warppoints\nFormat settings, Matrix          : Custom\nCodec ID                         : XVID\nCodec ID/Hint                    : XviD\nDuration                         : 3h 12mn\nBit rate                         : 1 025 Kbps\nWidth                            : 704 pixels\nHeight                           : 288 pixels\nDisplay aspect ratio             : 2.40:1\nFrame rate                       : 25.000 fps\nColor space                      : YUV\nChroma subsampling               : 4:2:0\nBit depth                        : 8 bits\nScan type                        : Progressive\nBits/(Pixel*Frame)               : 0.202\nStream size                      : 1.38 GiB (69%)\nWriting library                  : XviD 1.2.1 (UTC 2008-12-04)\n\nAudio\nID                               : 1\nFormat                           : AC-3\nFormat/Info                      : Audio Coding 3\nMode extension                   : CM (complete main)\nCodec ID                         : 2000\nDuration                         : 3h 12mn\nBit rate mode                    : Constant\nBit rate                         : 448 Kbps\nChannel(s)                       : 6 channels\nChannel positions                : Front: L C R, Side: L R, LFE\nSampling rate                    : 48.0 KHz\nBit depth                        : 16 bits\nStream size                      : 618 MiB (30%)\nAlignment                        : Aligned on interleaves\nInterleave, duration             : 96 ms (2.40 video frames)\nInterleave, preload duration     : 96 ms\nLanguage                         : English\n\n","torrent":{"xt":"urn:btih:e25279914107301b20fe6cf028db7fbf32adc84f","amp;dn":"Lord.of.the.Rings.-.The.Return.of.the.King.%5B2003%5D.DvdRip.XviD-Kn","amp;tr":["udp%3A%2F%2Ftracker.openbittorrent.com%3A80","udp%3A%2F%2Fopen.demonii.com%3A1337","udp%3A%2F%2Ftracker.coppersurfer.tk%3A6969","udp%3A%2F%2Fexodus.desync.com%3A6969"],"infoHash":"e25279914107301b20fe6cf028db7fbf32adc84f","infoHashBuffer":{"type":"Buffer","data":[226,82,121,145,65,7,48,27,32,254,108,240,40,219,127,191,50,173,200,79]},"announce":[],"urlList":[]}}